<?xml version="1.0" standalone="no"?><!DOCTYPE svg PUBLIC "-//W3C//DTD SVG 1.1//EN" "http://www.w3.org/Graphics/SVG/1.1/DTD/svg11.dtd">
<svg xmlns:xlink="http://www.w3.org/1999/xlink"
    class="icon"
    height="600"
    p-id="1277"
    t="1580368469437"
    version="1.1"
    viewBox="0 0 1024 1024"
    width="600"
    xmlns="http://www.w3.org/2000/svg">
    <defs>
        <style type="text/css"></style>
    </defs>
    <path
        d="M394.24 569.002667s-156.501333-140.970667-190.976-157.354667c-28.672-13.653333-74.581333-14.677333-86.698667 20.138667-10.410667 29.696-2.901333 63.488 61.269334 85.333333a2164.906667 2164.906667 0 0 0 216.405333 51.882667zM380.928 465.578667s53.418667-176.810667 68.266667-205.824A66.901333 66.901333 0 0 1 546.133333 229.376a65.365333 65.365333 0 0 1 17.066667 97.962667c-26.282667 36.864-182.272 138.24-182.272 138.24zM352.085333 402.432s-104.96-164.864-123.050666-195.925333-11.264-93.354667 38.229333-110.08 112.981333 15.701333 109.397333 73.898666-24.576 232.106667-24.576 232.106667zM629.418667 452.266667s-41.984-194.901333-34.133334-279.381334c2.901333-31.914667 36.352-119.466667 143.018667-96.256s86.698667 126.634667 74.752 151.722667C773.632 310.442667 629.418667 452.266667 629.418667 452.266667zM617.301333 554.666667s139.434667-93.866667 183.466667-116.565334c34.986667-18.090667 83.968-14.165333 98.133333 31.232a59.904 59.904 0 0 1-54.101333 79.701334c-37.376 4.437333-227.498667 5.632-227.498667 5.632z"
        fill="#42B275"
        p-id="1278"></path>
    <path
        d="M475.136 308.224l-94.890667 140.288-53.418666-221.013333a12.8 12.8 0 1 0-24.917334 5.973333l75.946667 313.856-167.594667-81.749333a12.8 12.8 0 0 0-11.264 23.04L385.877333 580.266667l51.2 209.408a12.8 12.8 0 0 0 12.458667 9.728h3.072a12.8 12.8 0 0 0 9.386667-15.530667l-73.386667-301.909333 107.861333-159.573334a12.8 12.8 0 0 0-21.162666-14.336zM814.08 496.981333a12.8 12.8 0 0 0-15.872-8.704l-171.690667 50.176 74.410667-343.893333a12.8 12.8 0 0 0-25.088-5.461333l-137.898667 638.122666a12.8 12.8 0 0 0 9.898667 15.189334h2.730667a12.8 12.8 0 0 0 12.458666-10.069334l57.514667-265.557333 185.002667-54.101333a12.8 12.8 0 0 0 8.533333-15.701334z"
        fill="#1A5B3E"
        p-id="1279"></path>
    <path
        d="M375.466667 972.8h273.066666v39.424a11.776 11.776 0 0 1-11.776 11.776H387.242667a11.776 11.776 0 0 1-11.776-11.776V972.8z"
        fill="#513D33"
        p-id="1280"></path>
    <path
        d="M358.4 648.533333h307.2a34.133333 34.133333 0 0 1 34.133333 34.133334v238.933333a68.266667 68.266667 0 0 1-68.266666 68.266667H392.533333a68.266667 68.266667 0 0 1-68.266666-68.266667V682.666667a34.133333 34.133333 0 0 1 34.133333-34.133334z"
        fill="#685245"
        p-id="1281"></path>
</svg>